{"title":"Meet Me Daily Baby 1080p Full HD - Welcome Back - Team truHD HEV","uid":12309351,"size":41591265,"categoryP":"video","categoryS":"music_videos","magnet":"?xt=urn:btih:1d355ab44f1b83cd3e738f4c5c4363419a9531cf&amp;dn=Meet+Me+Daily+Baby+1080p+Full+HD+-+Welcome+Back+-+Team+truHD+HEV&amp;tr=udp%3A%2F%2Ftracker.openbittorrent.com%3A80&amp;tr=udp%3A%2F%2Fopen.demonii.com%3A1337&amp;tr=udp%3A%2F%2Ftracker.coppersurfer.tk%3A6969&amp;tr=udp%3A%2F%2Fexodus.desync.com%3A6969","seeders":1,"leechers":0,"uploader":"Aainul","files":5,"time":1440808456,"description":"Seeding From High Speed Seedbox\n\nMeet Me Daily Baby 1080p Full HD Song - Welcome Back - Team truHD HEVC\n\nSource: WEB-DL\n\nSource File Info:\n\nGeneral\nFormat : MPEG-4\nFormat profile : Base Media\nCodec ID : isom\nFile size : 237 MiB\nDuration : 9mn 30s\nOverall bit rate : 3 483 Kbps\nWriting application : Lavf54.29.104\n\nVideo\nID : 1\nFormat : AVC\nFormat/Info : Advanced Video Codec\nFormat profile : &lt;a class=&quot;__cf_email__&quot; href=&quot;/cdn-cgi/l/email-protection&quot; data-cfemail=&quot;88c0e1efe0c8c4bca6b8&quot;&gt;[email&amp;#160;protected]&lt;/a&gt;&lt;script data-cfhash='f9e31' type=&quot;text/javascript&quot;&gt;\n/* &lt;![CDATA[ */!function(){try{var t=&quot;currentScript&quot;in document?document.currentScript:function(){for(var t=document.getElementsByTagName(&quot;script&quot;),e=t.length;e--;)if(t[e].getAttribute(&quot;data-cfhash&quot;))return t[e]}();if(t&amp;&amp;t.previousSibling){var e,r,n,i,c=t.previousSibling,a=c.getAttribute(&quot;data-cfemail&quot;);if(a){for(e=&quot;&quot;,r=parseInt(a.substr(0,2),16),n=2;a.length-n;n+=2)i=parseInt(a.substr(n,2),16)^r,e+=String.fromCharCode(i);e=document.createTextNode(e),c.parentNode.replaceChild(e,c)}t.parentNode.removeChild(t);}}catch(u){}}()/* ]]&gt; */&lt;/script&gt;\nFormat settings, CABAC : Yes\nFormat settings, ReFrames : 2 frames\nCodec ID : avc1\nCodec ID/Info : Advanced Video Coding\nDuration : 9mn 30s\nBit rate : 3 352 Kbps\nWidth : 1 920 pixels\nHeight : 1 080 pixels\nDisplay aspect ratio : 16:9\nFrame rate mode : Constant\nFrame rate : 24.000 fps\nColor space : YUV\nChroma subsampling : 4:2:0\nBit depth : 8 bits\nScan type : Progressive\nBits/(Pixel*Frame) : 0.067\nStream size : 228 MiB (96%)\n\nAudio\nID : 2\nFormat : AAC\nFormat/Info : Advanced Audio Codec\nFormat profile : LC\nCodec ID : 40\nDuration : 9mn 30s\nBit rate mode : Constant\nBit rate : 126 Kbps\nChannel(s) : 2 channels\nChannel positions : Front: L R\nSampling rate : 44.1 KHz\nCompression mode : Lossy\nStream size : 8.54 MiB (4%)\n\n\nEncoder: truHD HEVC Encoding Team\n\nEncoded File Info:\n\nGeneral\n\nFormat : MPEG-4\nFormat profile : Base Media\nCodec ID : iso4\nFile size : 39.4 MiB\nDuration : 2mn 0s\nOverall bit rate mode : Variable\nOverall bit rate : 2 741 Kbps\nEncoded date : UTC 2015-08-27 09:03:59\nTagged date : UTC 2015-08-27 09:03:59\n\nVideo\nID : 1\nFormat : HEVC\nFormat/Info : High Efficiency Video Coding\nCodec ID : hvc1\nCodec ID/Info : High Efficiency Video Coding\nDuration : 2mn 0s\nBit rate : 2 437 Kbps\nMaximum bit rate : 6 806 Kbps\nWidth : 1 920 pixels\nHeight : 1 080 pixels\nDisplay aspect ratio : 16:9\nFrame rate mode : Constant\nFrame rate : 25.000 fps\nBits/(Pixel*Frame) : 0.047\nStream size : 35.0 MiB (89%)\nTitle : Video\nEncoded date : UTC 2015-08-27 09:03:59\nTagged date : UTC 2015-08-27 09:04:02\n\nAudio #1\nID : 2\nFormat : AC-3\nFormat/Info : Audio Coding 3\nMode extension : CM (complete main)\nFormat settings, Endianness : Big\nCodec ID : ac-3\nDuration : 2mn 0s\nBit rate mode : Constant\nBit rate : 192 Kbps\nMaximum bit rate : 201 Kbps\nChannel(s) : 6 channels\nChannel positions : Front: L C R, Side: L R, LFE\nSampling rate : 44.1 KHz\nBit depth : 16 bits\nCompression mode : Lossy\nStream size : 2.76 MiB (7%)\nTitle : \nEncoded date : UTC 2015-08-27 09:04:01\nTagged date : UTC 2015-08-27 09:04:02\n\nAudio #2\nID : 3\nFormat : AAC\nFormat/Info : Advanced Audio Codec\nFormat profile : LC\nCodec ID : 40\nDuration : 2mn 0s\nBit rate mode : Variable\nBit rate : 110 Kbps\nMaximum bit rate : 121 Kbps\nChannel(s) : 2 channels\nChannel positions : Front: L R\nSampling rate : 44.1 KHz\nCompression mode : Lossy\nStream size : 1.59 MiB (4%)\nTitle : truHD HEVC \nEncoded date : UTC 2015-08-27 08:08:24\nTagged date : UTC 2015-08-27 09:04:02\n\n\nScreenShots:\n &lt;a href=&quot;\nhttp://i1.someimage.com/BXVXiog.jpg&quot; rel=&quot;nofollow&quot; target=&quot;_NEW&quot;&gt;\nhttp://i1.someimage.com/BXVXiog.jpg&lt;/a&gt;\n\nLike Us On FB And Request Accepted\n\nKickAssTorrents:  &lt;a href=&quot;\nhttps://kat.cr/user/Aainul/&quot; rel=&quot;nofollow&quot; target=&quot;_NEW&quot;&gt;\nhttps://kat.cr/user/Aainul/&lt;/a&gt;\nGloTorrents:  &lt;a href=&quot;\nhttps://glodls.to/user/Aainul&quot; rel=&quot;nofollow&quot; target=&quot;_NEW&quot;&gt;\nhttps://glodls.to/user/Aainul&lt;/a&gt;\nThePirateBay:  &lt;a href=&quot;\nhttps://thepiratebay.vg/user/Aainul/&quot; rel=&quot;nofollow&quot; target=&quot;_NEW&quot;&gt;\nhttps://thepiratebay.vg/user/Aainul/&lt;/a&gt;\n1337x Torrents:  &lt;a href=&quot;\nhttp://1337.to/user/Aainul/&quot; rel=&quot;nofollow&quot; target=&quot;_NEW&quot;&gt;\nhttp://1337.to/user/Aainul/&lt;/a&gt;\n\n\nNote: All Videos Uploaded By Me Are For Review Purpose. If You Like IT, Google IT And Buy IT - Thanks\n\n\nKing Regards\ntruHD HEVC Team\n\nShare Among Friends And Relatives","torrent":{"xt":"urn:btih:1d355ab44f1b83cd3e738f4c5c4363419a9531cf","amp;dn":"Meet+Me+Daily+Baby+1080p+Full+HD+-+Welcome+Back+-+Team+truHD+HEV","amp;tr":["udp%3A%2F%2Ftracker.openbittorrent.com%3A80","udp%3A%2F%2Fopen.demonii.com%3A1337","udp%3A%2F%2Ftracker.coppersurfer.tk%3A6969","udp%3A%2F%2Fexodus.desync.com%3A6969"],"infoHash":"1d355ab44f1b83cd3e738f4c5c4363419a9531cf","infoHashBuffer":{"type":"Buffer","data":[29,53,90,180,79,27,131,205,62,115,143,76,92,67,99,65,154,149,49,207]},"announce":[],"urlList":[]}}